<svg width="343" height="344" viewBox="0 0 343 344" fill="none" xmlns="http://www.w3.org/2000/svg">
<rect y="0.5" width="343" height="343" rx="10" fill="#E9EFF6"/>
<path d="M23.556 34.5V25.848H20.056V24.63H28.498V25.848H24.998V34.5H23.556ZM29.5526 34.5V24.63H30.9666V28.732C31.1999 28.34 31.5126 28.046 31.9046 27.85C32.3059 27.6447 32.7539 27.542 33.2486 27.542C34.8633 27.542 35.6706 28.4567 35.6706 30.286V34.5H34.2566V30.37C34.2566 29.782 34.1399 29.3527 33.9066 29.082C33.6826 28.8113 33.3279 28.676 32.8426 28.676C32.2733 28.676 31.8159 28.858 31.4706 29.222C31.1346 29.5767 30.9666 30.048 30.9666 30.636V34.5H29.5526ZM37.493 26.086V24.616H39.145V26.086H37.493ZM37.619 34.5V27.668H39.033V34.5H37.619ZM43.4173 34.626C42.8573 34.626 42.3346 34.556 41.8493 34.416C41.364 34.2667 40.958 34.0613 40.6313 33.8L41.0373 32.848C41.3826 33.0907 41.7606 33.2773 42.1713 33.408C42.5913 33.5387 43.0113 33.604 43.4313 33.604C43.926 33.604 44.2993 33.5153 44.5513 33.338C44.8033 33.1607 44.9293 32.9227 44.9293 32.624C44.9293 32.3813 44.8453 32.1947 44.6773 32.064C44.5093 31.924 44.2573 31.8167 43.9213 31.742L42.5913 31.476C41.4153 31.2333 40.8273 30.6267 40.8273 29.656C40.8273 29.012 41.084 28.4987 41.5973 28.116C42.1106 27.7333 42.7826 27.542 43.6133 27.542C44.0893 27.542 44.542 27.612 44.9713 27.752C45.41 27.892 45.774 28.102 46.0633 28.382L45.6573 29.334C45.3773 29.0913 45.0553 28.9047 44.6913 28.774C44.3273 28.6433 43.968 28.578 43.6133 28.578C43.128 28.578 42.7593 28.6713 42.5073 28.858C42.2553 29.0353 42.1293 29.278 42.1293 29.586C42.1293 30.0527 42.4373 30.3513 43.0533 30.482L44.3833 30.748C44.99 30.8693 45.4473 31.0747 45.7553 31.364C46.0726 31.6533 46.2313 32.0453 46.2313 32.54C46.2313 33.1933 45.9746 33.7067 45.4613 34.08C44.948 34.444 44.2666 34.626 43.4173 34.626ZM51.6643 34.5V24.63H52.8823L56.5363 31.448L60.1763 24.63H61.3663V34.5H60.0643V27.262L56.9703 32.988H56.0883L52.9803 27.29V34.5H51.6643ZM66.5089 34.626C65.8182 34.626 65.2209 34.4813 64.7169 34.192C64.2129 33.9027 63.8209 33.4967 63.5409 32.974C63.2702 32.442 63.1349 31.812 63.1349 31.084C63.1349 30.356 63.2702 29.7307 63.5409 29.208C63.8209 28.676 64.2129 28.2653 64.7169 27.976C65.2209 27.6867 65.8182 27.542 66.5089 27.542C67.1809 27.542 67.7689 27.6867 68.2729 27.976C68.7769 28.2653 69.1689 28.676 69.4489 29.208C69.7289 29.7307 69.8689 30.356 69.8689 31.084C69.8689 31.812 69.7289 32.442 69.4489 32.974C69.1689 33.4967 68.7769 33.9027 68.2729 34.192C67.7689 34.4813 67.1809 34.626 66.5089 34.626ZM66.5089 33.534C67.0875 33.534 67.5542 33.324 67.9089 32.904C68.2635 32.484 68.4409 31.8773 68.4409 31.084C68.4409 30.2907 68.2635 29.6887 67.9089 29.278C67.5542 28.858 67.0875 28.648 66.5089 28.648C65.9209 28.648 65.4495 28.858 65.0949 29.278C64.7402 29.6887 64.5629 30.2907 64.5629 31.084C64.5629 31.8773 64.7402 32.484 65.0949 32.904C65.4495 33.324 65.9209 33.534 66.5089 33.534ZM71.4569 34.5V27.668H72.8289V28.802C73.0622 28.3913 73.3796 28.0787 73.7809 27.864C74.1916 27.6493 74.6489 27.542 75.1529 27.542C76.7676 27.542 77.5749 28.4567 77.5749 30.286V34.5H76.1609V30.37C76.1609 29.782 76.0442 29.3527 75.8109 29.082C75.5869 28.8113 75.2322 28.676 74.7469 28.676C74.1776 28.676 73.7202 28.858 73.3749 29.222C73.0389 29.5767 72.8709 30.048 72.8709 30.636V34.5H71.4569ZM82.4353 34.626C81.5766 34.626 80.9373 34.4067 80.5173 33.968C80.0973 33.5293 79.8873 32.8947 79.8873 32.064V28.76H78.5573V27.668H79.8873V25.61H81.3013V27.668H83.4153V28.76H81.3013V31.952C81.3013 32.4467 81.404 32.82 81.6093 33.072C81.824 33.324 82.1693 33.45 82.6453 33.45C82.7946 33.45 82.9393 33.436 83.0793 33.408C83.2193 33.3707 83.3593 33.3287 83.4993 33.282L83.7233 34.346C83.5833 34.43 83.3873 34.4953 83.1353 34.542C82.8926 34.598 82.6593 34.626 82.4353 34.626ZM84.6366 34.5V24.63H86.0506V28.732C86.2839 28.34 86.5966 28.046 86.9886 27.85C87.3899 27.6447 87.8379 27.542 88.3326 27.542C89.9472 27.542 90.7546 28.4567 90.7546 30.286V34.5H89.3406V30.37C89.3406 29.782 89.2239 29.3527 88.9906 29.082C88.7666 28.8113 88.4119 28.676 87.9266 28.676C87.3572 28.676 86.8999 28.858 86.5546 29.222C86.2186 29.5767 86.0506 30.048 86.0506 30.636V34.5H84.6366Z" fill="#111B22"/>
<path d="M23.048 63.5V56.084H20.048V55.04H27.284V56.084H24.284V63.5H23.048ZM29.8062 63.608C29.2142 63.608 28.7022 63.484 28.2702 63.236C27.8382 62.988 27.5022 62.64 27.2622 62.192C27.0302 61.736 26.9142 61.196 26.9142 60.572C26.9142 59.948 27.0302 59.412 27.2622 58.964C27.5022 58.508 27.8382 58.156 28.2702 57.908C28.7022 57.66 29.2142 57.536 29.8062 57.536C30.3822 57.536 30.8862 57.66 31.3182 57.908C31.7502 58.156 32.0862 58.508 32.3262 58.964C32.5662 59.412 32.6862 59.948 32.6862 60.572C32.6862 61.196 32.5662 61.736 32.3262 62.192C32.0862 62.64 31.7502 62.988 31.3182 63.236C30.8862 63.484 30.3822 63.608 29.8062 63.608ZM29.8062 62.672C30.3022 62.672 30.7022 62.492 31.0062 62.132C31.3102 61.772 31.4622 61.252 31.4622 60.572C31.4622 59.892 31.3102 59.376 31.0062 59.024C30.7022 58.664 30.3022 58.484 29.8062 58.484C29.3022 58.484 28.8982 58.664 28.5942 59.024C28.2902 59.376 28.1382 59.892 28.1382 60.572C28.1382 61.252 28.2902 61.772 28.5942 62.132C28.8982 62.492 29.3022 62.672 29.8062 62.672ZM36.4847 63.608C35.7487 63.608 35.2007 63.42 34.8407 63.044C34.4807 62.668 34.3007 62.124 34.3007 61.412V58.58H33.1607V57.644H34.3007V55.88H35.5127V57.644H37.3247V58.58H35.5127V61.316C35.5127 61.74 35.6007 62.06 35.7767 62.276C35.9607 62.492 36.2567 62.6 36.6647 62.6C36.7927 62.6 36.9167 62.588 37.0367 62.564C37.1567 62.532 37.2767 62.496 37.3967 62.456L37.5887 63.368C37.4687 63.44 37.3007 63.496 37.0847 63.536C36.8767 63.584 36.6767 63.608 36.4847 63.608ZM40.2435 63.608C39.8355 63.608 39.4715 63.528 39.1515 63.368C38.8315 63.208 38.5755 62.992 38.3835 62.72C38.1995 62.448 38.1075 62.14 38.1075 61.796C38.1075 61.364 38.2155 61.024 38.4315 60.776C38.6555 60.528 39.0195 60.348 39.5235 60.236C40.0355 60.124 40.7235 60.068 41.5875 60.068H41.9955V59.756C41.9955 59.3 41.8995 58.972 41.7075 58.772C41.5155 58.572 41.1995 58.472 40.7595 58.472C40.4235 58.472 40.0875 58.524 39.7515 58.628C39.4155 58.724 39.0715 58.88 38.7195 59.096L38.3475 58.244C38.6515 58.028 39.0315 57.856 39.4875 57.728C39.9435 57.6 40.3795 57.536 40.7955 57.536C41.5955 57.536 42.1875 57.728 42.5715 58.112C42.9555 58.488 43.1475 59.08 43.1475 59.888V63.5H42.0075V62.528C41.8635 62.864 41.6395 63.128 41.3355 63.32C41.0315 63.512 40.6675 63.608 40.2435 63.608ZM40.4835 62.744C40.9155 62.744 41.2755 62.592 41.5635 62.288C41.8515 61.984 41.9955 61.6 41.9955 61.136V60.812H41.5995C41.0155 60.812 40.5555 60.84 40.2195 60.896C39.8915 60.952 39.6555 61.048 39.5115 61.184C39.3755 61.312 39.3075 61.492 39.3075 61.724C39.3075 62.028 39.4115 62.276 39.6195 62.468C39.8275 62.652 40.1155 62.744 40.4835 62.744ZM46.7248 63.608C46.0848 63.608 45.6048 63.428 45.2848 63.068C44.9728 62.708 44.8168 62.18 44.8168 61.484V55.04H46.0288V61.412C46.0288 62.204 46.3528 62.6 47.0008 62.6C47.0968 62.6 47.1848 62.596 47.2648 62.588C47.3528 62.58 47.4408 62.564 47.5288 62.54L47.5048 63.512C47.2328 63.576 46.9728 63.608 46.7248 63.608ZM51.7692 63.5V55.04H53.0172V58.688H57.7572V55.04H58.9932V63.5H57.7572V59.732H53.0172V63.5H51.7692ZM63.3804 63.608C62.7884 63.608 62.2764 63.484 61.8444 63.236C61.4124 62.988 61.0764 62.64 60.8364 62.192C60.6044 61.736 60.4884 61.196 60.4884 60.572C60.4884 59.948 60.6044 59.412 60.8364 58.964C61.0764 58.508 61.4124 58.156 61.8444 57.908C62.2764 57.66 62.7884 57.536 63.3804 57.536C63.9564 57.536 64.4604 57.66 64.8924 57.908C65.3244 58.156 65.6604 58.508 65.9004 58.964C66.1404 59.412 66.2604 59.948 66.2604 60.572C66.2604 61.196 66.1404 61.736 65.9004 62.192C65.6604 62.64 65.3244 62.988 64.8924 63.236C64.4604 63.484 63.9564 63.608 63.3804 63.608ZM63.3804 62.672C63.8764 62.672 64.2764 62.492 64.5804 62.132C64.8844 61.772 65.0364 61.252 65.0364 60.572C65.0364 59.892 64.8844 59.376 64.5804 59.024C64.2764 58.664 63.8764 58.484 63.3804 58.484C62.8764 58.484 62.4724 58.664 62.1684 59.024C61.8644 59.376 61.7124 59.892 61.7124 60.572C61.7124 61.252 61.8644 61.772 62.1684 62.132C62.4724 62.492 62.8764 62.672 63.3804 62.672ZM69.7095 63.608C68.2935 63.608 67.5855 62.82 67.5855 61.244V57.644H68.7975V61.256C68.7975 61.728 68.8935 62.076 69.0855 62.3C69.2775 62.524 69.5815 62.636 69.9975 62.636C70.4535 62.636 70.8215 62.484 71.1015 62.18C71.3895 61.876 71.5335 61.468 71.5335 60.956V57.644H72.7455V63.5H71.5695V62.564C71.3775 62.908 71.1215 63.168 70.8015 63.344C70.4815 63.52 70.1175 63.608 69.7095 63.608ZM74.4536 63.5V57.644H75.6296V58.688C75.9336 57.992 76.5656 57.604 77.5256 57.524L77.9216 57.5L78.0056 58.532L77.2736 58.604C76.2096 58.708 75.6776 59.256 75.6776 60.248V63.5H74.4536ZM80.9235 63.608C80.4435 63.608 79.9955 63.548 79.5795 63.428C79.1635 63.3 78.8155 63.124 78.5355 62.9L78.8835 62.084C79.1795 62.292 79.5035 62.452 79.8555 62.564C80.2155 62.676 80.5755 62.732 80.9355 62.732C81.3595 62.732 81.6795 62.656 81.8955 62.504C82.1115 62.352 82.2195 62.148 82.2195 61.892C82.2195 61.684 82.1475 61.524 82.0035 61.412C81.8595 61.292 81.6435 61.2 81.3555 61.136L80.2155 60.908C79.2075 60.7 78.7035 60.18 78.7035 59.348C78.7035 58.796 78.9235 58.356 79.3635 58.028C79.8035 57.7 80.3795 57.536 81.0915 57.536C81.4995 57.536 81.8875 57.596 82.2555 57.716C82.6315 57.836 82.9435 58.016 83.1915 58.256L82.8435 59.072C82.6035 58.864 82.3275 58.704 82.0155 58.592C81.7035 58.48 81.3955 58.424 81.0915 58.424C80.6755 58.424 80.3595 58.504 80.1435 58.664C79.9275 58.816 79.8195 59.024 79.8195 59.288C79.8195 59.688 80.0835 59.944 80.6115 60.056L81.7515 60.284C82.2715 60.388 82.6635 60.564 82.9275 60.812C83.1995 61.06 83.3355 61.396 83.3355 61.82C83.3355 62.38 83.1155 62.82 82.6755 63.14C82.2355 63.452 81.6515 63.608 80.9235 63.608ZM84.54 59.072V57.644H85.968V59.072H84.54ZM84.54 63.5V62.072H85.968V63.5H84.54ZM91.236 63.5V62.456H93.156V56.48L91.656 57.416L91.152 56.492L93.516 55.04H94.392V62.456H96.192V63.5H91.236ZM100.015 63.608C99.5753 63.608 99.1353 63.52 98.6953 63.344C98.2633 63.168 97.8953 62.928 97.5913 62.624L98.0233 61.676C98.3193 61.964 98.6393 62.184 98.9833 62.336C99.3273 62.48 99.6753 62.552 100.027 62.552C100.779 62.552 101.351 62.284 101.743 61.748C102.143 61.204 102.343 60.396 102.343 59.324V58.832C102.183 59.32 101.903 59.704 101.503 59.984C101.111 60.264 100.651 60.404 100.123 60.404C99.6353 60.404 99.1993 60.288 98.8153 60.056C98.4313 59.824 98.1313 59.508 97.9153 59.108C97.6993 58.7 97.5913 58.236 97.5913 57.716C97.5913 57.172 97.7073 56.692 97.9393 56.276C98.1713 55.852 98.4913 55.524 98.8993 55.292C99.3153 55.052 99.7913 54.932 100.327 54.932C101.351 54.932 102.139 55.296 102.691 56.024C103.251 56.752 103.531 57.772 103.531 59.084C103.531 60.532 103.219 61.648 102.595 62.432C101.979 63.216 101.119 63.608 100.015 63.608ZM100.411 59.384C100.899 59.384 101.295 59.228 101.599 58.916C101.903 58.596 102.055 58.18 102.055 57.668C102.055 57.156 101.903 56.74 101.599 56.42C101.295 56.092 100.899 55.928 100.411 55.928C99.9233 55.928 99.5273 56.092 99.2233 56.42C98.9193 56.74 98.7673 57.156 98.7673 57.668C98.7673 58.18 98.9193 58.596 99.2233 58.916C99.5273 59.228 99.9233 59.384 100.411 59.384ZM107.211 63.608C106.771 63.608 106.331 63.52 105.891 63.344C105.459 63.168 105.091 62.928 104.787 62.624L105.219 61.676C105.515 61.964 105.835 62.184 106.179 62.336C106.523 62.48 106.871 62.552 107.223 62.552C107.975 62.552 108.547 62.284 108.939 61.748C109.339 61.204 109.539 60.396 109.539 59.324V58.832C109.379 59.32 109.099 59.704 108.699 59.984C108.307 60.264 107.847 60.404 107.319 60.404C106.831 60.404 106.395 60.288 106.011 60.056C105.627 59.824 105.327 59.508 105.111 59.108C104.895 58.7 104.787 58.236 104.787 57.716C104.787 57.172 104.903 56.692 105.135 56.276C105.367 55.852 105.687 55.524 106.095 55.292C106.511 55.052 106.987 54.932 107.523 54.932C108.547 54.932 109.335 55.296 109.887 56.024C110.447 56.752 110.727 57.772 110.727 59.084C110.727 60.532 110.415 61.648 109.791 62.432C109.175 63.216 108.315 63.608 107.211 63.608ZM107.607 59.384C108.095 59.384 108.491 59.228 108.795 58.916C109.099 58.596 109.251 58.18 109.251 57.668C109.251 57.156 109.099 56.74 108.795 56.42C108.491 56.092 108.095 55.928 107.607 55.928C107.119 55.928 106.723 56.092 106.419 56.42C106.115 56.74 105.963 57.156 105.963 57.668C105.963 58.18 106.115 58.596 106.419 58.916C106.723 59.228 107.119 59.384 107.607 59.384ZM112.126 59.072V57.644H113.554V59.072H112.126ZM112.126 63.5V62.072H113.554V63.5H112.126ZM117.866 63.608C116.882 63.608 116.13 63.236 115.61 62.492C115.098 61.74 114.842 60.664 114.842 59.264C114.842 57.84 115.098 56.764 115.61 56.036C116.13 55.3 116.882 54.932 117.866 54.932C118.858 54.932 119.61 55.3 120.122 56.036C120.634 56.764 120.89 57.836 120.89 59.252C120.89 60.66 120.63 61.74 120.11 62.492C119.598 63.236 118.85 63.608 117.866 63.608ZM117.866 62.576C118.474 62.576 118.926 62.308 119.222 61.772C119.518 61.236 119.666 60.396 119.666 59.252C119.666 58.108 119.518 57.276 119.222 56.756C118.934 56.228 118.482 55.964 117.866 55.964C117.258 55.964 116.806 56.228 116.51 56.756C116.214 57.284 116.066 58.116 116.066 59.252C116.066 60.396 116.214 61.236 116.51 61.772C116.806 62.308 117.258 62.576 117.866 62.576ZM125.829 63.5V61.784H122.025V60.86L126.045 55.04H127.065V60.74H128.301V61.784H127.065V63.5H125.829ZM125.829 60.74V56.984L123.261 60.74H125.829ZM129.364 59.072V57.644H130.792V59.072H129.364ZM129.364 63.5V62.072H130.792V63.5H129.364ZM132.908 63.5V62.456H134.828V56.48L133.328 57.416L132.824 56.492L135.188 55.04H136.064V62.456H137.864V63.5H132.908ZM143.067 63.5V61.784H139.263V60.86L143.283 55.04H144.303V60.74H145.539V61.784H144.303V63.5H143.067ZM143.067 60.74V56.984L140.499 60.74H143.067Z" fill="black"/>
<circle cx="180" cy="28.5" r="4" fill="#40F0FB"/>
<path d="M193.044 32.5V24.04H196.392C197.304 24.04 198 24.26 198.48 24.7C198.968 25.14 199.212 25.768 199.212 26.584C199.212 27.392 198.968 28.02 198.48 28.468C198 28.908 197.304 29.128 196.392 29.128H194.028V32.5H193.044ZM194.028 28.3H196.272C197.584 28.3 198.24 27.728 198.24 26.584C198.24 25.432 197.584 24.856 196.272 24.856H194.028V28.3ZM200.389 32.5V26.668H201.337V27.712C201.649 27.008 202.289 26.62 203.257 26.548L203.605 26.512L203.677 27.352L203.065 27.424C202.513 27.472 202.093 27.648 201.805 27.952C201.517 28.248 201.373 28.656 201.373 29.176V32.5H200.389ZM207.043 32.608C206.475 32.608 205.983 32.484 205.567 32.236C205.151 31.988 204.827 31.64 204.595 31.192C204.371 30.736 204.259 30.2 204.259 29.584C204.259 28.968 204.371 28.436 204.595 27.988C204.827 27.532 205.151 27.18 205.567 26.932C205.983 26.684 206.475 26.56 207.043 26.56C207.603 26.56 208.091 26.684 208.507 26.932C208.931 27.18 209.255 27.532 209.479 27.988C209.711 28.436 209.827 28.968 209.827 29.584C209.827 30.2 209.711 30.736 209.479 31.192C209.255 31.64 208.931 31.988 208.507 32.236C208.091 32.484 207.603 32.608 207.043 32.608ZM207.043 31.828C207.587 31.828 208.023 31.636 208.351 31.252C208.679 30.86 208.843 30.304 208.843 29.584C208.843 28.856 208.679 28.3 208.351 27.916C208.023 27.532 207.587 27.34 207.043 27.34C206.491 27.34 206.051 27.532 205.723 27.916C205.403 28.3 205.243 28.856 205.243 29.584C205.243 30.304 205.403 30.86 205.723 31.252C206.051 31.636 206.491 31.828 207.043 31.828ZM211.203 25.216V24.124H212.403V25.216H211.203ZM209.775 34.816L209.703 34.06L210.219 34.012C210.955 33.948 211.323 33.504 211.323 32.68V26.668H212.295V32.584C212.295 33.28 212.131 33.808 211.803 34.168C211.475 34.528 210.971 34.732 210.291 34.78L209.775 34.816ZM216.751 32.608C215.831 32.608 215.103 32.34 214.567 31.804C214.031 31.26 213.763 30.524 213.763 29.596C213.763 28.996 213.883 28.468 214.123 28.012C214.363 27.548 214.691 27.192 215.107 26.944C215.531 26.688 216.019 26.56 216.571 26.56C217.363 26.56 217.983 26.816 218.431 27.328C218.879 27.832 219.103 28.528 219.103 29.416V29.788H214.711C214.743 30.452 214.935 30.96 215.287 31.312C215.639 31.656 216.127 31.828 216.751 31.828C217.103 31.828 217.439 31.776 217.759 31.672C218.079 31.56 218.383 31.38 218.671 31.132L219.007 31.816C218.743 32.064 218.407 32.26 217.999 32.404C217.591 32.54 217.175 32.608 216.751 32.608ZM216.595 27.28C216.043 27.28 215.607 27.452 215.287 27.796C214.967 28.14 214.779 28.592 214.723 29.152H218.263C218.239 28.56 218.083 28.1 217.795 27.772C217.515 27.444 217.115 27.28 216.595 27.28ZM222.982 32.608C222.398 32.608 221.894 32.484 221.47 32.236C221.046 31.98 220.718 31.624 220.486 31.168C220.262 30.704 220.15 30.164 220.15 29.548C220.15 28.62 220.402 27.892 220.906 27.364C221.41 26.828 222.102 26.56 222.982 26.56C223.342 26.56 223.698 26.624 224.05 26.752C224.402 26.88 224.694 27.06 224.926 27.292L224.59 28C224.358 27.776 224.102 27.612 223.822 27.508C223.55 27.404 223.29 27.352 223.042 27.352C222.434 27.352 221.966 27.544 221.638 27.928C221.31 28.304 221.146 28.848 221.146 29.56C221.146 30.256 221.31 30.808 221.638 31.216C221.966 31.616 222.434 31.816 223.042 31.816C223.29 31.816 223.55 31.764 223.822 31.66C224.102 31.556 224.358 31.388 224.59 31.156L224.926 31.864C224.694 32.096 224.398 32.28 224.038 32.416C223.686 32.544 223.334 32.608 222.982 32.608ZM228.404 32.608C227.716 32.608 227.2 32.428 226.856 32.068C226.512 31.7 226.34 31.172 226.34 30.484V27.424H225.2V26.668H226.34V24.88H227.312V26.668H229.16V27.424H227.312V30.388C227.312 30.844 227.408 31.192 227.6 31.432C227.792 31.664 228.104 31.78 228.536 31.78C228.664 31.78 228.792 31.764 228.92 31.732C229.048 31.7 229.164 31.668 229.268 31.636L229.436 32.38C229.332 32.436 229.18 32.488 228.98 32.536C228.78 32.584 228.588 32.608 228.404 32.608ZM232.658 32.5L236.39 24.04H237.23L240.962 32.5H239.942L239.006 30.34H234.602L233.678 32.5H232.658ZM236.798 25.192L234.962 29.512H238.658L236.822 25.192H236.798Z" fill="#090F16"/>
<path d="M253.024 32.608C252.592 32.608 252.156 32.516 251.716 32.332C251.276 32.148 250.916 31.9 250.636 31.588L251.008 30.808C251.296 31.12 251.612 31.352 251.956 31.504C252.308 31.656 252.668 31.732 253.036 31.732C253.82 31.732 254.424 31.44 254.848 30.856C255.272 30.272 255.484 29.404 255.484 28.252V27.652C255.324 28.18 255.036 28.596 254.62 28.9C254.212 29.196 253.728 29.344 253.168 29.344C252.672 29.344 252.232 29.232 251.848 29.008C251.464 28.776 251.164 28.46 250.948 28.06C250.732 27.66 250.624 27.2 250.624 26.68C250.624 26.144 250.736 25.672 250.96 25.264C251.192 24.848 251.508 24.524 251.908 24.292C252.316 24.052 252.784 23.932 253.312 23.932C254.312 23.932 255.08 24.296 255.616 25.024C256.16 25.744 256.432 26.756 256.432 28.06C256.432 29.516 256.132 30.64 255.532 31.432C254.932 32.216 254.096 32.608 253.024 32.608ZM253.372 28.516C253.908 28.516 254.344 28.344 254.68 28C255.016 27.648 255.184 27.196 255.184 26.644C255.184 26.084 255.016 25.632 254.68 25.288C254.344 24.936 253.908 24.76 253.372 24.76C252.844 24.76 252.412 24.936 252.076 25.288C251.74 25.632 251.572 26.084 251.572 26.644C251.572 27.196 251.74 27.648 252.076 28C252.412 28.344 252.844 28.516 253.372 28.516ZM261.083 32.608C260.083 32.608 259.311 32.248 258.767 31.528C258.231 30.8 257.963 29.784 257.963 28.48C257.963 27.016 258.263 25.892 258.863 25.108C259.463 24.324 260.303 23.932 261.383 23.932C261.815 23.932 262.247 24.024 262.679 24.208C263.119 24.392 263.479 24.64 263.759 24.952L263.399 25.72C263.103 25.416 262.779 25.188 262.427 25.036C262.083 24.884 261.727 24.808 261.359 24.808C260.575 24.808 259.971 25.1 259.547 25.684C259.131 26.268 258.923 27.136 258.923 28.288V28.876C259.075 28.348 259.355 27.936 259.763 27.64C260.179 27.344 260.667 27.196 261.227 27.196C261.723 27.196 262.163 27.312 262.547 27.544C262.931 27.768 263.231 28.08 263.447 28.48C263.663 28.88 263.771 29.34 263.771 29.86C263.771 30.396 263.655 30.872 263.423 31.288C263.199 31.696 262.883 32.02 262.475 32.26C262.075 32.492 261.611 32.608 261.083 32.608ZM261.023 31.768C261.559 31.768 261.991 31.596 262.319 31.252C262.655 30.908 262.823 30.456 262.823 29.896C262.823 29.344 262.655 28.896 262.319 28.552C261.991 28.2 261.559 28.024 261.023 28.024C260.487 28.024 260.051 28.2 259.715 28.552C259.387 28.896 259.223 29.344 259.223 29.896C259.223 30.456 259.387 30.908 259.715 31.252C260.051 31.596 260.487 31.768 261.023 31.768ZM265.147 27.892V26.668H266.371V27.892H265.147ZM265.147 32.5V31.276H266.371V32.5H265.147ZM268.201 32.5V31.756L271.093 28.636C271.501 28.188 271.793 27.78 271.969 27.412C272.153 27.044 272.245 26.668 272.245 26.284C272.245 25.3 271.673 24.808 270.529 24.808C269.673 24.808 268.917 25.128 268.261 25.768L267.889 25C268.201 24.68 268.597 24.424 269.077 24.232C269.565 24.032 270.077 23.932 270.613 23.932C271.461 23.932 272.109 24.132 272.557 24.532C273.013 24.924 273.241 25.484 273.241 26.212C273.241 26.716 273.117 27.212 272.869 27.7C272.621 28.18 272.241 28.692 271.729 29.236L269.461 31.66H273.589V32.5H268.201ZM277.916 32.608C276.948 32.608 276.212 32.236 275.708 31.492C275.204 30.748 274.952 29.672 274.952 28.264C274.952 26.848 275.204 25.772 275.708 25.036C276.212 24.3 276.948 23.932 277.916 23.932C278.892 23.932 279.628 24.3 280.124 25.036C280.628 25.764 280.88 26.836 280.88 28.252C280.88 29.668 280.624 30.748 280.112 31.492C279.608 32.236 278.876 32.608 277.916 32.608ZM277.916 31.756C278.588 31.756 279.084 31.472 279.404 30.904C279.732 30.336 279.896 29.452 279.896 28.252C279.896 27.052 279.736 26.176 279.416 25.624C279.096 25.064 278.596 24.784 277.916 24.784C277.244 24.784 276.744 25.064 276.416 25.624C276.096 26.184 275.936 27.06 275.936 28.252C275.936 29.452 276.096 30.336 276.416 30.904C276.744 31.472 277.244 31.756 277.916 31.756ZM282.268 27.892V26.668H283.492V27.892H282.268ZM282.268 32.5V31.276H283.492V32.5H282.268ZM287.746 32.608C287.186 32.608 286.654 32.524 286.15 32.356C285.646 32.18 285.222 31.928 284.878 31.6L285.238 30.82C285.63 31.14 286.026 31.372 286.426 31.516C286.826 31.66 287.258 31.732 287.722 31.732C288.33 31.732 288.794 31.6 289.114 31.336C289.442 31.064 289.606 30.668 289.606 30.148C289.606 29.652 289.442 29.276 289.114 29.02C288.786 28.764 288.31 28.636 287.686 28.636H286.438V27.784H287.602C288.146 27.784 288.574 27.644 288.886 27.364C289.206 27.076 289.366 26.684 289.366 26.188C289.366 25.748 289.218 25.408 288.922 25.168C288.634 24.928 288.222 24.808 287.686 24.808C286.806 24.808 286.038 25.128 285.382 25.768L285.022 25C285.334 24.664 285.73 24.404 286.21 24.22C286.698 24.028 287.21 23.932 287.746 23.932C288.562 23.932 289.198 24.124 289.654 24.508C290.118 24.892 290.35 25.424 290.35 26.104C290.35 26.576 290.23 26.992 289.99 27.352C289.75 27.704 289.418 27.96 288.994 28.12C289.498 28.256 289.89 28.508 290.17 28.876C290.45 29.236 290.59 29.684 290.59 30.22C290.59 30.948 290.334 31.528 289.822 31.96C289.318 32.392 288.626 32.608 287.746 32.608ZM295.962 32.5V30.688H292.062V29.944L296.13 24.04H296.958V29.848H298.217V30.688H296.958V32.5H295.962ZM295.962 29.848V25.66L293.082 29.848H295.962Z" fill="#090F16"/>
<circle cx="180" cy="116.5" r="4" fill="#52EE7D"/>
<path d="M193.044 120.5V112.04H194.028V119.636H198.336V120.5H193.044ZM201.264 120.608C200.864 120.608 200.504 120.532 200.184 120.38C199.872 120.22 199.624 120.004 199.44 119.732C199.256 119.46 199.164 119.156 199.164 118.82C199.164 118.396 199.272 118.06 199.488 117.812C199.712 117.564 200.076 117.388 200.58 117.284C201.092 117.172 201.788 117.116 202.668 117.116H203.052V116.744C203.052 116.248 202.948 115.892 202.74 115.676C202.54 115.452 202.216 115.34 201.768 115.34C201.416 115.34 201.076 115.392 200.748 115.496C200.42 115.592 200.084 115.752 199.74 115.976L199.404 115.268C199.708 115.052 200.076 114.88 200.508 114.752C200.948 114.624 201.368 114.56 201.768 114.56C202.52 114.56 203.076 114.744 203.436 115.112C203.804 115.48 203.988 116.052 203.988 116.828V120.5H203.076V119.492C202.924 119.836 202.688 120.108 202.368 120.308C202.056 120.508 201.688 120.608 201.264 120.608ZM201.42 119.876C201.9 119.876 202.292 119.712 202.596 119.384C202.9 119.048 203.052 118.624 203.052 118.112V117.752H202.68C202.032 117.752 201.52 117.784 201.144 117.848C200.776 117.904 200.516 118.008 200.364 118.16C200.22 118.304 200.148 118.504 200.148 118.76C200.148 119.088 200.26 119.356 200.484 119.564C200.716 119.772 201.028 119.876 201.42 119.876ZM205.791 120.5V114.668H206.739V115.664C206.931 115.296 207.203 115.02 207.555 114.836C207.907 114.652 208.303 114.56 208.743 114.56C210.127 114.56 210.819 115.328 210.819 116.864V120.5H209.847V116.924C209.847 116.38 209.739 115.984 209.523 115.736C209.315 115.48 208.979 115.352 208.515 115.352C207.979 115.352 207.551 115.52 207.231 115.856C206.919 116.184 206.763 116.624 206.763 117.176V120.5H205.791ZM214.831 120.608C214.311 120.608 213.855 120.484 213.463 120.236C213.079 119.988 212.779 119.64 212.563 119.192C212.355 118.736 212.251 118.2 212.251 117.584C212.251 116.96 212.355 116.424 212.563 115.976C212.779 115.52 213.079 115.172 213.463 114.932C213.855 114.684 214.311 114.56 214.831 114.56C215.287 114.56 215.687 114.66 216.031 114.86C216.383 115.06 216.643 115.336 216.811 115.688V112.04H217.783V120.5H216.835V119.432C216.667 119.8 216.407 120.088 216.055 120.296C215.703 120.504 215.295 120.608 214.831 120.608ZM215.035 119.828C215.579 119.828 216.015 119.636 216.343 119.252C216.671 118.86 216.835 118.304 216.835 117.584C216.835 116.856 216.671 116.3 216.343 115.916C216.015 115.532 215.579 115.34 215.035 115.34C214.483 115.34 214.043 115.532 213.715 115.916C213.395 116.3 213.235 116.856 213.235 117.584C213.235 118.304 213.395 118.86 213.715 119.252C214.043 119.636 214.483 119.828 215.035 119.828ZM219.487 113.216V112.124H220.687V113.216H219.487ZM219.607 120.5V114.668H220.579V120.5H219.607ZM222.396 120.5V114.668H223.344V115.664C223.536 115.296 223.808 115.02 224.16 114.836C224.512 114.652 224.908 114.56 225.348 114.56C226.732 114.56 227.424 115.328 227.424 116.864V120.5H226.452V116.924C226.452 116.38 226.344 115.984 226.128 115.736C225.92 115.48 225.584 115.352 225.12 115.352C224.584 115.352 224.156 115.52 223.836 115.856C223.524 116.184 223.368 116.624 223.368 117.176V120.5H222.396ZM231.797 122.768C231.293 122.768 230.817 122.7 230.369 122.564C229.929 122.436 229.537 122.24 229.193 121.976L229.517 121.268C229.877 121.524 230.233 121.708 230.585 121.82C230.945 121.932 231.333 121.988 231.749 121.988C232.901 121.988 233.477 121.396 233.477 120.212V119.18C233.309 119.548 233.045 119.84 232.685 120.056C232.333 120.264 231.929 120.368 231.473 120.368C230.937 120.368 230.473 120.244 230.081 119.996C229.689 119.748 229.385 119.408 229.169 118.976C228.961 118.536 228.857 118.028 228.857 117.452C228.857 116.876 228.961 116.372 229.169 115.94C229.385 115.5 229.689 115.16 230.081 114.92C230.473 114.68 230.937 114.56 231.473 114.56C231.929 114.56 232.333 114.664 232.685 114.872C233.045 115.08 233.309 115.364 233.477 115.724V114.668H234.425V120.08C234.425 120.976 234.201 121.648 233.753 122.096C233.313 122.544 232.661 122.768 231.797 122.768ZM231.653 119.576C232.213 119.576 232.657 119.384 232.985 119C233.313 118.616 233.477 118.1 233.477 117.452C233.477 116.804 233.313 116.292 232.985 115.916C232.657 115.532 232.213 115.34 231.653 115.34C231.101 115.34 230.661 115.532 230.333 115.916C230.005 116.292 229.841 116.804 229.841 117.452C229.841 118.1 230.005 118.616 230.333 119C230.661 119.384 231.101 119.576 231.653 119.576ZM239.462 120.5V112.04H242.81C243.722 112.04 244.418 112.26 244.898 112.7C245.386 113.14 245.63 113.768 245.63 114.584C245.63 115.392 245.386 116.02 244.898 116.468C244.418 116.908 243.722 117.128 242.81 117.128H240.446V120.5H239.462ZM240.446 116.3H242.69C244.002 116.3 244.658 115.728 244.658 114.584C244.658 113.432 244.002 112.856 242.69 112.856H240.446V116.3ZM248.467 120.608C248.067 120.608 247.707 120.532 247.387 120.38C247.075 120.22 246.827 120.004 246.643 119.732C246.459 119.46 246.367 119.156 246.367 118.82C246.367 118.396 246.475 118.06 246.691 117.812C246.915 117.564 247.279 117.388 247.783 117.284C248.295 117.172 248.991 117.116 249.871 117.116H250.255V116.744C250.255 116.248 250.151 115.892 249.943 115.676C249.743 115.452 249.419 115.34 248.971 115.34C248.619 115.34 248.279 115.392 247.951 115.496C247.623 115.592 247.287 115.752 246.943 115.976L246.607 115.268C246.911 115.052 247.279 114.88 247.711 114.752C248.151 114.624 248.571 114.56 248.971 114.56C249.723 114.56 250.279 114.744 250.639 115.112C251.007 115.48 251.191 116.052 251.191 116.828V120.5H250.279V119.492C250.127 119.836 249.891 120.108 249.571 120.308C249.259 120.508 248.891 120.608 248.467 120.608ZM248.623 119.876C249.103 119.876 249.495 119.712 249.799 119.384C250.103 119.048 250.255 118.624 250.255 118.112V117.752H249.883C249.235 117.752 248.723 117.784 248.347 117.848C247.979 117.904 247.719 118.008 247.567 118.16C247.423 118.304 247.351 118.504 247.351 118.76C247.351 119.088 247.463 119.356 247.687 119.564C247.919 119.772 248.231 119.876 248.623 119.876ZM255.574 122.768C255.07 122.768 254.594 122.7 254.146 122.564C253.706 122.436 253.314 122.24 252.97 121.976L253.294 121.268C253.654 121.524 254.01 121.708 254.362 121.82C254.722 121.932 255.11 121.988 255.526 121.988C256.678 121.988 257.254 121.396 257.254 120.212V119.18C257.086 119.548 256.822 119.84 256.462 120.056C256.11 120.264 255.706 120.368 255.25 120.368C254.714 120.368 254.25 120.244 253.858 119.996C253.466 119.748 253.162 119.408 252.946 118.976C252.738 118.536 252.634 118.028 252.634 117.452C252.634 116.876 252.738 116.372 252.946 115.94C253.162 115.5 253.466 115.16 253.858 114.92C254.25 114.68 254.714 114.56 255.25 114.56C255.706 114.56 256.11 114.664 256.462 114.872C256.822 115.08 257.086 115.364 257.254 115.724V114.668H258.202V120.08C258.202 120.976 257.978 121.648 257.53 122.096C257.09 122.544 256.438 122.768 255.574 122.768ZM255.43 119.576C255.99 119.576 256.434 119.384 256.762 119C257.09 118.616 257.254 118.1 257.254 117.452C257.254 116.804 257.09 116.292 256.762 115.916C256.434 115.532 255.99 115.34 255.43 115.34C254.878 115.34 254.438 115.532 254.11 115.916C253.782 116.292 253.618 116.804 253.618 117.452C253.618 118.1 253.782 118.616 254.11 119C254.438 119.384 254.878 119.576 255.43 119.576ZM262.653 120.608C261.733 120.608 261.005 120.34 260.469 119.804C259.933 119.26 259.665 118.524 259.665 117.596C259.665 116.996 259.785 116.468 260.025 116.012C260.265 115.548 260.593 115.192 261.009 114.944C261.433 114.688 261.921 114.56 262.473 114.56C263.265 114.56 263.885 114.816 264.333 115.328C264.781 115.832 265.005 116.528 265.005 117.416V117.788H260.613C260.645 118.452 260.837 118.96 261.189 119.312C261.541 119.656 262.029 119.828 262.653 119.828C263.005 119.828 263.341 119.776 263.661 119.672C263.981 119.56 264.285 119.38 264.573 119.132L264.909 119.816C264.645 120.064 264.309 120.26 263.901 120.404C263.493 120.54 263.077 120.608 262.653 120.608ZM262.497 115.28C261.945 115.28 261.509 115.452 261.189 115.796C260.869 116.14 260.681 116.592 260.625 117.152H264.165C264.141 116.56 263.985 116.1 263.697 115.772C263.417 115.444 263.017 115.28 262.497 115.28Z" fill="#090F16"/>
<path d="M275.488 120.5V119.66H277.42V113.228L275.896 114.188L275.476 113.456L277.696 112.04H278.404V119.66H280.216V120.5H275.488ZM282.683 120.5V119.66H284.615V113.228L283.091 114.188L282.671 113.456L284.891 112.04H285.599V119.66H287.411V120.5H282.683ZM289.147 115.892V114.668H290.371V115.892H289.147ZM289.147 120.5V119.276H290.371V120.5H289.147ZM295.645 120.5V118.688H291.745V117.944L295.813 112.04H296.641V117.848H297.901V118.688H296.641V120.5H295.645ZM295.645 117.848V113.66L292.765 117.848H295.645ZM302.096 120.608C301.552 120.608 301.032 120.52 300.536 120.344C300.04 120.168 299.62 119.92 299.276 119.6L299.648 118.82C300.392 119.428 301.204 119.732 302.084 119.732C302.668 119.732 303.128 119.568 303.464 119.24C303.8 118.912 303.968 118.48 303.968 117.944C303.968 117.392 303.808 116.94 303.488 116.588C303.168 116.236 302.728 116.06 302.168 116.06C301.36 116.06 300.724 116.396 300.26 117.068H299.54V112.04H304.448V112.88H300.512V115.904C300.976 115.44 301.588 115.208 302.348 115.208C302.876 115.208 303.336 115.32 303.728 115.544C304.12 115.768 304.42 116.084 304.628 116.492C304.844 116.892 304.952 117.36 304.952 117.896C304.952 118.424 304.836 118.892 304.604 119.3C304.372 119.708 304.04 120.028 303.608 120.26C303.184 120.492 302.68 120.608 302.096 120.608ZM306.268 115.892V114.668H307.492V115.892H306.268ZM306.268 120.5V119.276H307.492V120.5H306.268ZM311.842 120.608C310.874 120.608 310.138 120.236 309.634 119.492C309.13 118.748 308.878 117.672 308.878 116.264C308.878 114.848 309.13 113.772 309.634 113.036C310.138 112.3 310.874 111.932 311.842 111.932C312.818 111.932 313.554 112.3 314.05 113.036C314.554 113.764 314.806 114.836 314.806 116.252C314.806 117.668 314.55 118.748 314.038 119.492C313.534 120.236 312.802 120.608 311.842 120.608ZM311.842 119.756C312.514 119.756 313.01 119.472 313.33 118.904C313.658 118.336 313.822 117.452 313.822 116.252C313.822 115.052 313.662 114.176 313.342 113.624C313.022 113.064 312.522 112.784 311.842 112.784C311.17 112.784 310.67 113.064 310.342 113.624C310.022 114.184 309.862 115.06 309.862 116.252C309.862 117.452 310.022 118.336 310.342 118.904C310.67 119.472 311.17 119.756 311.842 119.756ZM319.326 120.608C318.326 120.608 317.554 120.248 317.01 119.528C316.474 118.8 316.206 117.784 316.206 116.48C316.206 115.016 316.506 113.892 317.106 113.108C317.706 112.324 318.546 111.932 319.626 111.932C320.058 111.932 320.49 112.024 320.922 112.208C321.362 112.392 321.722 112.64 322.002 112.952L321.642 113.72C321.346 113.416 321.022 113.188 320.67 113.036C320.326 112.884 319.97 112.808 319.602 112.808C318.818 112.808 318.214 113.1 317.79 113.684C317.374 114.268 317.166 115.136 317.166 116.288V116.876C317.318 116.348 317.598 115.936 318.006 115.64C318.422 115.344 318.91 115.196 319.47 115.196C319.966 115.196 320.406 115.312 320.79 115.544C321.174 115.768 321.474 116.08 321.69 116.48C321.906 116.88 322.014 117.34 322.014 117.86C322.014 118.396 321.898 118.872 321.666 119.288C321.442 119.696 321.126 120.02 320.718 120.26C320.318 120.492 319.854 120.608 319.326 120.608ZM319.266 119.768C319.802 119.768 320.234 119.596 320.562 119.252C320.898 118.908 321.066 118.456 321.066 117.896C321.066 117.344 320.898 116.896 320.562 116.552C320.234 116.2 319.802 116.024 319.266 116.024C318.73 116.024 318.294 116.2 317.958 116.552C317.63 116.896 317.466 117.344 317.466 117.896C317.466 118.456 317.63 118.908 317.958 119.252C318.294 119.596 318.73 119.768 319.266 119.768Z" fill="#090F16"/>
<circle cx="180" cy="94.5" r="4" fill="#F83F60"/>
<path d="M193.044 98.5V90.04H194.028V98.5H193.044ZM197.77 98.608C197.178 98.608 196.73 98.436 196.426 98.092C196.13 97.74 195.982 97.232 195.982 96.568V90.04H196.954V96.496C196.954 97.352 197.294 97.78 197.974 97.78C198.174 97.78 198.354 97.756 198.514 97.708L198.49 98.524C198.242 98.58 198.002 98.608 197.77 98.608ZM201.321 98.608C200.729 98.608 200.281 98.436 199.977 98.092C199.681 97.74 199.533 97.232 199.533 96.568V90.04H200.505V96.496C200.505 97.352 200.845 97.78 201.525 97.78C201.725 97.78 201.905 97.756 202.065 97.708L202.041 98.524C201.793 98.58 201.553 98.608 201.321 98.608ZM205.148 98.608C203.748 98.608 203.048 97.836 203.048 96.292V92.668H204.02V96.28C204.02 96.8 204.124 97.184 204.332 97.432C204.548 97.68 204.884 97.804 205.34 97.804C205.836 97.804 206.24 97.64 206.552 97.312C206.864 96.976 207.02 96.532 207.02 95.98V92.668H207.992V98.5H207.044V97.516C206.86 97.868 206.6 98.14 206.264 98.332C205.936 98.516 205.564 98.608 205.148 98.608ZM211.778 98.608C211.322 98.608 210.89 98.544 210.482 98.416C210.074 98.288 209.738 98.108 209.474 97.876L209.786 97.192C210.074 97.424 210.39 97.596 210.734 97.708C211.086 97.812 211.442 97.864 211.802 97.864C212.258 97.864 212.602 97.78 212.834 97.612C213.066 97.444 213.182 97.216 213.182 96.928C213.182 96.704 213.106 96.528 212.954 96.4C212.802 96.264 212.562 96.16 212.234 96.088L211.142 95.848C210.15 95.632 209.654 95.12 209.654 94.312C209.654 93.784 209.862 93.36 210.278 93.04C210.702 92.72 211.254 92.56 211.934 92.56C212.334 92.56 212.714 92.624 213.074 92.752C213.442 92.872 213.746 93.052 213.986 93.292L213.662 93.976C213.43 93.76 213.158 93.596 212.846 93.484C212.542 93.364 212.238 93.304 211.934 93.304C211.486 93.304 211.146 93.392 210.914 93.568C210.682 93.744 210.566 93.976 210.566 94.264C210.566 94.712 210.862 95 211.454 95.128L212.546 95.356C213.058 95.468 213.446 95.648 213.71 95.896C213.974 96.136 214.106 96.464 214.106 96.88C214.106 97.416 213.894 97.84 213.47 98.152C213.046 98.456 212.482 98.608 211.778 98.608ZM217.869 98.608C217.181 98.608 216.665 98.428 216.321 98.068C215.977 97.7 215.805 97.172 215.805 96.484V93.424H214.665V92.668H215.805V90.88H216.777V92.668H218.625V93.424H216.777V96.388C216.777 96.844 216.873 97.192 217.065 97.432C217.257 97.664 217.569 97.78 218.001 97.78C218.129 97.78 218.257 97.764 218.385 97.732C218.513 97.7 218.629 97.668 218.733 97.636L218.901 98.38C218.797 98.436 218.645 98.488 218.445 98.536C218.245 98.584 218.053 98.608 217.869 98.608ZM219.725 98.5V92.668H220.673V93.712C220.985 93.008 221.625 92.62 222.593 92.548L222.941 92.512L223.013 93.352L222.401 93.424C221.849 93.472 221.429 93.648 221.141 93.952C220.853 94.248 220.709 94.656 220.709 95.176V98.5H219.725ZM225.803 98.608C225.403 98.608 225.043 98.532 224.723 98.38C224.411 98.22 224.163 98.004 223.979 97.732C223.795 97.46 223.703 97.156 223.703 96.82C223.703 96.396 223.811 96.06 224.027 95.812C224.251 95.564 224.615 95.388 225.119 95.284C225.631 95.172 226.327 95.116 227.207 95.116H227.591V94.744C227.591 94.248 227.487 93.892 227.279 93.676C227.079 93.452 226.755 93.34 226.307 93.34C225.955 93.34 225.615 93.392 225.287 93.496C224.959 93.592 224.623 93.752 224.279 93.976L223.943 93.268C224.247 93.052 224.615 92.88 225.047 92.752C225.487 92.624 225.907 92.56 226.307 92.56C227.059 92.56 227.615 92.744 227.975 93.112C228.343 93.48 228.527 94.052 228.527 94.828V98.5H227.615V97.492C227.463 97.836 227.227 98.108 226.907 98.308C226.595 98.508 226.227 98.608 225.803 98.608ZM225.959 97.876C226.439 97.876 226.831 97.712 227.135 97.384C227.439 97.048 227.591 96.624 227.591 96.112V95.752H227.219C226.571 95.752 226.059 95.784 225.683 95.848C225.315 95.904 225.055 96.008 224.903 96.16C224.759 96.304 224.687 96.504 224.687 96.76C224.687 97.088 224.799 97.356 225.023 97.564C225.255 97.772 225.567 97.876 225.959 97.876ZM232.67 98.608C231.982 98.608 231.466 98.428 231.122 98.068C230.778 97.7 230.606 97.172 230.606 96.484V93.424H229.466V92.668H230.606V90.88H231.578V92.668H233.426V93.424H231.578V96.388C231.578 96.844 231.674 97.192 231.866 97.432C232.058 97.664 232.37 97.78 232.802 97.78C232.93 97.78 233.058 97.764 233.186 97.732C233.314 97.7 233.43 97.668 233.534 97.636L233.702 98.38C233.598 98.436 233.446 98.488 233.246 98.536C233.046 98.584 232.854 98.608 232.67 98.608ZM234.405 91.216V90.124H235.605V91.216H234.405ZM234.525 98.5V92.668H235.497V98.5H234.525ZM239.738 98.608C239.17 98.608 238.678 98.484 238.262 98.236C237.846 97.988 237.522 97.64 237.29 97.192C237.066 96.736 236.954 96.2 236.954 95.584C236.954 94.968 237.066 94.436 237.29 93.988C237.522 93.532 237.846 93.18 238.262 92.932C238.678 92.684 239.17 92.56 239.738 92.56C240.298 92.56 240.786 92.684 241.202 92.932C241.626 93.18 241.95 93.532 242.174 93.988C242.406 94.436 242.522 94.968 242.522 95.584C242.522 96.2 242.406 96.736 242.174 97.192C241.95 97.64 241.626 97.988 241.202 98.236C240.786 98.484 240.298 98.608 239.738 98.608ZM239.738 97.828C240.282 97.828 240.718 97.636 241.046 97.252C241.374 96.86 241.538 96.304 241.538 95.584C241.538 94.856 241.374 94.3 241.046 93.916C240.718 93.532 240.282 93.34 239.738 93.34C239.186 93.34 238.746 93.532 238.418 93.916C238.098 94.3 237.938 94.856 237.938 95.584C237.938 96.304 238.098 96.86 238.418 97.252C238.746 97.636 239.186 97.828 239.738 97.828ZM243.982 98.5V92.668H244.93V93.664C245.122 93.296 245.394 93.02 245.746 92.836C246.098 92.652 246.494 92.56 246.934 92.56C248.318 92.56 249.01 93.328 249.01 94.864V98.5H248.038V94.924C248.038 94.38 247.93 93.984 247.714 93.736C247.506 93.48 247.17 93.352 246.706 93.352C246.17 93.352 245.742 93.52 245.422 93.856C245.11 94.184 244.954 94.624 244.954 95.176V98.5H243.982ZM253.201 98.5L256.933 90.04H257.773L261.505 98.5H260.485L259.549 96.34H255.145L254.221 98.5H253.201ZM257.341 91.192L255.505 95.512H259.201L257.365 91.192H257.341Z" fill="#090F16"/>
<path d="M271.08 98.5V97.756L273.972 94.636C274.38 94.188 274.672 93.78 274.848 93.412C275.032 93.044 275.124 92.668 275.124 92.284C275.124 91.3 274.552 90.808 273.408 90.808C272.552 90.808 271.796 91.128 271.14 91.768L270.768 91C271.08 90.68 271.476 90.424 271.956 90.232C272.444 90.032 272.956 89.932 273.492 89.932C274.34 89.932 274.988 90.132 275.436 90.532C275.892 90.924 276.12 91.484 276.12 92.212C276.12 92.716 275.996 93.212 275.748 93.7C275.5 94.18 275.12 94.692 274.608 95.236L272.34 97.66H276.468V98.5H271.08ZM280.795 98.608C279.827 98.608 279.091 98.236 278.587 97.492C278.083 96.748 277.831 95.672 277.831 94.264C277.831 92.848 278.083 91.772 278.587 91.036C279.091 90.3 279.827 89.932 280.795 89.932C281.771 89.932 282.507 90.3 283.003 91.036C283.507 91.764 283.759 92.836 283.759 94.252C283.759 95.668 283.503 96.748 282.991 97.492C282.487 98.236 281.755 98.608 280.795 98.608ZM280.795 97.756C281.467 97.756 281.963 97.472 282.283 96.904C282.611 96.336 282.775 95.452 282.775 94.252C282.775 93.052 282.615 92.176 282.295 91.624C281.975 91.064 281.475 90.784 280.795 90.784C280.123 90.784 279.623 91.064 279.295 91.624C278.975 92.184 278.815 93.06 278.815 94.252C278.815 95.452 278.975 96.336 279.295 96.904C279.623 97.472 280.123 97.756 280.795 97.756ZM285.147 93.892V92.668H286.371V93.892H285.147ZM285.147 98.5V97.276H286.371V98.5H285.147ZM290.721 98.608C289.753 98.608 289.017 98.236 288.513 97.492C288.009 96.748 287.757 95.672 287.757 94.264C287.757 92.848 288.009 91.772 288.513 91.036C289.017 90.3 289.753 89.932 290.721 89.932C291.697 89.932 292.433 90.3 292.929 91.036C293.433 91.764 293.685 92.836 293.685 94.252C293.685 95.668 293.429 96.748 292.917 97.492C292.413 98.236 291.681 98.608 290.721 98.608ZM290.721 97.756C291.393 97.756 291.889 97.472 292.209 96.904C292.537 96.336 292.701 95.452 292.701 94.252C292.701 93.052 292.541 92.176 292.221 91.624C291.901 91.064 291.401 90.784 290.721 90.784C290.049 90.784 289.549 91.064 289.221 91.624C288.901 92.184 288.741 93.06 288.741 94.252C288.741 95.452 288.901 96.336 289.221 96.904C289.549 97.472 290.049 97.756 290.721 97.756ZM298.84 98.5V96.688H294.94V95.944L299.008 90.04H299.836V95.848H301.096V96.688H299.836V98.5H298.84ZM298.84 95.848V91.66L295.96 95.848H298.84ZM302.268 93.892V92.668H303.492V93.892H302.268ZM302.268 98.5V97.276H303.492V98.5H302.268ZM305.73 98.5V97.66H307.662V91.228L306.138 92.188L305.718 91.456L307.938 90.04H308.646V97.66H310.458V98.5H305.73ZM312.518 98.5V97.756L315.41 94.636C315.818 94.188 316.11 93.78 316.286 93.412C316.47 93.044 316.562 92.668 316.562 92.284C316.562 91.3 315.99 90.808 314.846 90.808C313.99 90.808 313.234 91.128 312.578 91.768L312.206 91C312.518 90.68 312.914 90.424 313.394 90.232C313.882 90.032 314.394 89.932 314.93 89.932C315.778 89.932 316.426 90.132 316.874 90.532C317.33 90.924 317.558 91.484 317.558 92.212C317.558 92.716 317.434 93.212 317.186 93.7C316.938 94.18 316.558 94.692 316.046 95.236L313.778 97.66H317.906V98.5H312.518Z" fill="#090F16"/>
<circle cx="180" cy="72.5" r="4" fill="#9B52F8"/>
<path d="M195.78 76.608C195.116 76.608 194.516 76.524 193.98 76.356C193.444 76.18 192.98 75.928 192.588 75.6L192.936 74.808C193.344 75.12 193.772 75.352 194.22 75.504C194.668 75.656 195.188 75.732 195.78 75.732C196.5 75.732 197.032 75.6 197.376 75.336C197.728 75.064 197.904 74.708 197.904 74.268C197.904 73.916 197.776 73.636 197.52 73.428C197.272 73.22 196.852 73.056 196.26 72.936L195.012 72.684C194.26 72.524 193.696 72.264 193.32 71.904C192.952 71.536 192.768 71.048 192.768 70.44C192.768 69.936 192.896 69.496 193.152 69.12C193.416 68.744 193.78 68.452 194.244 68.244C194.708 68.036 195.244 67.932 195.852 67.932C196.42 67.932 196.948 68.024 197.436 68.208C197.924 68.384 198.336 68.64 198.672 68.976L198.324 69.744C197.964 69.416 197.584 69.18 197.184 69.036C196.784 68.884 196.336 68.808 195.84 68.808C195.208 68.808 194.704 68.956 194.328 69.252C193.952 69.54 193.764 69.924 193.764 70.404C193.764 70.788 193.88 71.092 194.112 71.316C194.352 71.54 194.74 71.704 195.276 71.808L196.524 72.072C197.332 72.24 197.928 72.496 198.312 72.84C198.704 73.176 198.9 73.636 198.9 74.22C198.9 74.692 198.772 75.108 198.516 75.468C198.268 75.828 197.908 76.108 197.436 76.308C196.972 76.508 196.42 76.608 195.78 76.608ZM202.923 76.608C202.003 76.608 201.275 76.34 200.739 75.804C200.203 75.26 199.935 74.524 199.935 73.596C199.935 72.996 200.055 72.468 200.295 72.012C200.535 71.548 200.863 71.192 201.279 70.944C201.703 70.688 202.191 70.56 202.743 70.56C203.535 70.56 204.155 70.816 204.603 71.328C205.051 71.832 205.275 72.528 205.275 73.416V73.788H200.883C200.915 74.452 201.107 74.96 201.459 75.312C201.811 75.656 202.299 75.828 202.923 75.828C203.275 75.828 203.611 75.776 203.931 75.672C204.251 75.56 204.555 75.38 204.843 75.132L205.179 75.816C204.915 76.064 204.579 76.26 204.171 76.404C203.763 76.54 203.347 76.608 202.923 76.608ZM202.767 71.28C202.215 71.28 201.779 71.452 201.459 71.796C201.139 72.14 200.951 72.592 200.895 73.152H204.435C204.411 72.56 204.255 72.1 203.967 71.772C203.687 71.444 203.287 71.28 202.767 71.28ZM206.706 76.5V70.668H207.654V71.652C207.83 71.3 208.074 71.032 208.386 70.848C208.698 70.656 209.062 70.56 209.478 70.56C210.39 70.56 210.974 70.956 211.23 71.748C211.406 71.38 211.666 71.092 212.01 70.884C212.354 70.668 212.75 70.56 213.198 70.56C214.494 70.56 215.142 71.328 215.142 72.864V76.5H214.17V72.912C214.17 72.376 214.074 71.984 213.882 71.736C213.698 71.48 213.39 71.352 212.958 71.352C212.486 71.352 212.11 71.52 211.83 71.856C211.55 72.192 211.41 72.64 211.41 73.2V76.5H210.438V72.912C210.438 72.376 210.342 71.984 210.15 71.736C209.966 71.48 209.658 71.352 209.226 71.352C208.746 71.352 208.366 71.52 208.086 71.856C207.814 72.192 207.678 72.64 207.678 73.2V76.5H206.706ZM216.839 69.216V68.124H218.039V69.216H216.839ZM216.959 76.5V70.668H217.931V76.5H216.959ZM219.748 76.5V70.668H220.696V71.664C220.888 71.296 221.16 71.02 221.512 70.836C221.864 70.652 222.26 70.56 222.7 70.56C224.084 70.56 224.776 71.328 224.776 72.864V76.5H223.804V72.924C223.804 72.38 223.696 71.984 223.48 71.736C223.272 71.48 222.936 71.352 222.472 71.352C221.936 71.352 221.508 71.52 221.188 71.856C220.876 72.184 220.72 72.624 220.72 73.176V76.5H219.748ZM228.404 76.608C228.004 76.608 227.644 76.532 227.324 76.38C227.012 76.22 226.764 76.004 226.58 75.732C226.396 75.46 226.304 75.156 226.304 74.82C226.304 74.396 226.412 74.06 226.628 73.812C226.852 73.564 227.216 73.388 227.72 73.284C228.232 73.172 228.928 73.116 229.808 73.116H230.192V72.744C230.192 72.248 230.088 71.892 229.88 71.676C229.68 71.452 229.356 71.34 228.908 71.34C228.556 71.34 228.216 71.392 227.888 71.496C227.56 71.592 227.224 71.752 226.88 71.976L226.544 71.268C226.848 71.052 227.216 70.88 227.648 70.752C228.088 70.624 228.508 70.56 228.908 70.56C229.66 70.56 230.216 70.744 230.576 71.112C230.944 71.48 231.128 72.052 231.128 72.828V76.5H230.216V75.492C230.064 75.836 229.828 76.108 229.508 76.308C229.196 76.508 228.828 76.608 228.404 76.608ZM228.56 75.876C229.04 75.876 229.432 75.712 229.736 75.384C230.04 75.048 230.192 74.624 230.192 74.112V73.752H229.82C229.172 73.752 228.66 73.784 228.284 73.848C227.916 73.904 227.656 74.008 227.504 74.16C227.36 74.304 227.288 74.504 227.288 74.76C227.288 75.088 227.4 75.356 227.624 75.564C227.856 75.772 228.168 75.876 228.56 75.876ZM232.932 76.5V70.668H233.88V71.712C234.192 71.008 234.832 70.62 235.8 70.548L236.148 70.512L236.22 71.352L235.608 71.424C235.056 71.472 234.636 71.648 234.348 71.952C234.06 72.248 233.916 72.656 233.916 73.176V76.5H232.932Z" fill="#090F16"/>
<path d="M246.08 76.5V75.756L248.972 72.636C249.38 72.188 249.672 71.78 249.848 71.412C250.032 71.044 250.124 70.668 250.124 70.284C250.124 69.3 249.552 68.808 248.408 68.808C247.552 68.808 246.796 69.128 246.14 69.768L245.768 69C246.08 68.68 246.476 68.424 246.956 68.232C247.444 68.032 247.956 67.932 248.492 67.932C249.34 67.932 249.988 68.132 250.436 68.532C250.892 68.924 251.12 69.484 251.12 70.212C251.12 70.716 250.996 71.212 250.748 71.7C250.5 72.18 250.12 72.692 249.608 73.236L247.34 75.66H251.468V76.5H246.08ZM255.975 76.608C255.431 76.608 254.911 76.52 254.415 76.344C253.919 76.168 253.499 75.92 253.155 75.6L253.527 74.82C254.271 75.428 255.083 75.732 255.963 75.732C256.547 75.732 257.007 75.568 257.343 75.24C257.679 74.912 257.847 74.48 257.847 73.944C257.847 73.392 257.687 72.94 257.367 72.588C257.047 72.236 256.607 72.06 256.047 72.06C255.239 72.06 254.603 72.396 254.139 73.068H253.419V68.04H258.327V68.88H254.391V71.904C254.855 71.44 255.467 71.208 256.227 71.208C256.755 71.208 257.215 71.32 257.607 71.544C257.999 71.768 258.299 72.084 258.507 72.492C258.723 72.892 258.831 73.36 258.831 73.896C258.831 74.424 258.715 74.892 258.483 75.3C258.251 75.708 257.919 76.028 257.487 76.26C257.063 76.492 256.559 76.608 255.975 76.608ZM260.147 71.892V70.668H261.371V71.892H260.147ZM260.147 76.5V75.276H261.371V76.5H260.147ZM266.645 76.5V74.688H262.745V73.944L266.813 68.04H267.641V73.848H268.901V74.688H267.641V76.5H266.645ZM266.645 73.848V69.66L263.765 73.848H266.645ZM270.804 76.5V75.66H272.736V69.228L271.212 70.188L270.792 69.456L273.012 68.04H273.72V75.66H275.532V76.5H270.804ZM277.268 71.892V70.668H278.492V71.892H277.268ZM277.268 76.5V75.276H278.492V76.5H277.268ZM282.746 76.608C282.186 76.608 281.654 76.524 281.15 76.356C280.646 76.18 280.222 75.928 279.878 75.6L280.238 74.82C280.63 75.14 281.026 75.372 281.426 75.516C281.826 75.66 282.258 75.732 282.722 75.732C283.33 75.732 283.794 75.6 284.114 75.336C284.442 75.064 284.606 74.668 284.606 74.148C284.606 73.652 284.442 73.276 284.114 73.02C283.786 72.764 283.31 72.636 282.686 72.636H281.438V71.784H282.602C283.146 71.784 283.574 71.644 283.886 71.364C284.206 71.076 284.366 70.684 284.366 70.188C284.366 69.748 284.218 69.408 283.922 69.168C283.634 68.928 283.222 68.808 282.686 68.808C281.806 68.808 281.038 69.128 280.382 69.768L280.022 69C280.334 68.664 280.73 68.404 281.21 68.22C281.698 68.028 282.21 67.932 282.746 67.932C283.562 67.932 284.198 68.124 284.654 68.508C285.118 68.892 285.35 69.424 285.35 70.104C285.35 70.576 285.23 70.992 284.99 71.352C284.75 71.704 284.418 71.96 283.994 72.12C284.498 72.256 284.89 72.508 285.17 72.876C285.45 73.236 285.59 73.684 285.59 74.22C285.59 74.948 285.334 75.528 284.822 75.96C284.318 76.392 283.626 76.608 282.746 76.608ZM290.038 76.608C289.07 76.608 288.334 76.236 287.83 75.492C287.326 74.748 287.074 73.672 287.074 72.264C287.074 70.848 287.326 69.772 287.83 69.036C288.334 68.3 289.07 67.932 290.038 67.932C291.014 67.932 291.75 68.3 292.246 69.036C292.75 69.764 293.002 70.836 293.002 72.252C293.002 73.668 292.746 74.748 292.234 75.492C291.73 76.236 290.998 76.608 290.038 76.608ZM290.038 75.756C290.71 75.756 291.206 75.472 291.526 74.904C291.854 74.336 292.018 73.452 292.018 72.252C292.018 71.052 291.858 70.176 291.538 69.624C291.218 69.064 290.718 68.784 290.038 68.784C289.366 68.784 288.866 69.064 288.538 69.624C288.218 70.184 288.058 71.06 288.058 72.252C288.058 73.452 288.218 74.336 288.538 74.904C288.866 75.472 289.366 75.756 290.038 75.756Z" fill="#090F16"/>
<circle cx="180" cy="50.5" r="4" fill="#FDA53F"/>
<path d="M193.044 54.5V46.04H196.392C197.304 46.04 198 46.26 198.48 46.7C198.968 47.14 199.212 47.768 199.212 48.584C199.212 49.392 198.968 50.02 198.48 50.468C198 50.908 197.304 51.128 196.392 51.128H194.028V54.5H193.044ZM194.028 50.3H196.272C197.584 50.3 198.24 49.728 198.24 48.584C198.24 47.432 197.584 46.856 196.272 46.856H194.028V50.3ZM200.389 54.5V48.668H201.337V49.712C201.649 49.008 202.289 48.62 203.257 48.548L203.605 48.512L203.677 49.352L203.065 49.424C202.513 49.472 202.093 49.648 201.805 49.952C201.517 50.248 201.373 50.656 201.373 51.176V54.5H200.389ZM207.043 54.608C206.475 54.608 205.983 54.484 205.567 54.236C205.151 53.988 204.827 53.64 204.595 53.192C204.371 52.736 204.259 52.2 204.259 51.584C204.259 50.968 204.371 50.436 204.595 49.988C204.827 49.532 205.151 49.18 205.567 48.932C205.983 48.684 206.475 48.56 207.043 48.56C207.603 48.56 208.091 48.684 208.507 48.932C208.931 49.18 209.255 49.532 209.479 49.988C209.711 50.436 209.827 50.968 209.827 51.584C209.827 52.2 209.711 52.736 209.479 53.192C209.255 53.64 208.931 53.988 208.507 54.236C208.091 54.484 207.603 54.608 207.043 54.608ZM207.043 53.828C207.587 53.828 208.023 53.636 208.351 53.252C208.679 52.86 208.843 52.304 208.843 51.584C208.843 50.856 208.679 50.3 208.351 49.916C208.023 49.532 207.587 49.34 207.043 49.34C206.491 49.34 206.051 49.532 205.723 49.916C205.403 50.3 205.243 50.856 205.243 51.584C205.243 52.304 205.403 52.86 205.723 53.252C206.051 53.636 206.491 53.828 207.043 53.828ZM211.203 47.216V46.124H212.403V47.216H211.203ZM209.775 56.816L209.703 56.06L210.219 56.012C210.955 55.948 211.323 55.504 211.323 54.68V48.668H212.295V54.584C212.295 55.28 212.131 55.808 211.803 56.168C211.475 56.528 210.971 56.732 210.291 56.78L209.775 56.816ZM216.751 54.608C215.831 54.608 215.103 54.34 214.567 53.804C214.031 53.26 213.763 52.524 213.763 51.596C213.763 50.996 213.883 50.468 214.123 50.012C214.363 49.548 214.691 49.192 215.107 48.944C215.531 48.688 216.019 48.56 216.571 48.56C217.363 48.56 217.983 48.816 218.431 49.328C218.879 49.832 219.103 50.528 219.103 51.416V51.788H214.711C214.743 52.452 214.935 52.96 215.287 53.312C215.639 53.656 216.127 53.828 216.751 53.828C217.103 53.828 217.439 53.776 217.759 53.672C218.079 53.56 218.383 53.38 218.671 53.132L219.007 53.816C218.743 54.064 218.407 54.26 217.999 54.404C217.591 54.54 217.175 54.608 216.751 54.608ZM216.595 49.28C216.043 49.28 215.607 49.452 215.287 49.796C214.967 50.14 214.779 50.592 214.723 51.152H218.263C218.239 50.56 218.083 50.1 217.795 49.772C217.515 49.444 217.115 49.28 216.595 49.28ZM222.982 54.608C222.398 54.608 221.894 54.484 221.47 54.236C221.046 53.98 220.718 53.624 220.486 53.168C220.262 52.704 220.15 52.164 220.15 51.548C220.15 50.62 220.402 49.892 220.906 49.364C221.41 48.828 222.102 48.56 222.982 48.56C223.342 48.56 223.698 48.624 224.05 48.752C224.402 48.88 224.694 49.06 224.926 49.292L224.59 50C224.358 49.776 224.102 49.612 223.822 49.508C223.55 49.404 223.29 49.352 223.042 49.352C222.434 49.352 221.966 49.544 221.638 49.928C221.31 50.304 221.146 50.848 221.146 51.56C221.146 52.256 221.31 52.808 221.638 53.216C221.966 53.616 222.434 53.816 223.042 53.816C223.29 53.816 223.55 53.764 223.822 53.66C224.102 53.556 224.358 53.388 224.59 53.156L224.926 53.864C224.694 54.096 224.398 54.28 224.038 54.416C223.686 54.544 223.334 54.608 222.982 54.608ZM228.404 54.608C227.716 54.608 227.2 54.428 226.856 54.068C226.512 53.7 226.34 53.172 226.34 52.484V49.424H225.2V48.668H226.34V46.88H227.312V48.668H229.16V49.424H227.312V52.388C227.312 52.844 227.408 53.192 227.6 53.432C227.792 53.664 228.104 53.78 228.536 53.78C228.664 53.78 228.792 53.764 228.92 53.732C229.048 53.7 229.164 53.668 229.268 53.636L229.436 54.38C229.332 54.436 229.18 54.488 228.98 54.536C228.78 54.584 228.588 54.608 228.404 54.608ZM233.474 54.5V46.04H236.858C237.73 46.04 238.402 46.236 238.874 46.628C239.354 47.012 239.594 47.552 239.594 48.248C239.594 48.712 239.474 49.108 239.234 49.436C238.994 49.764 238.662 50.004 238.238 50.156C238.726 50.284 239.106 50.52 239.378 50.864C239.658 51.208 239.798 51.644 239.798 52.172C239.798 52.924 239.554 53.5 239.066 53.9C238.578 54.3 237.89 54.5 237.002 54.5H233.474ZM234.434 49.82H236.714C237.986 49.82 238.622 49.324 238.622 48.332C238.622 47.332 237.986 46.832 236.714 46.832H234.434V49.82ZM234.434 53.708H236.906C238.186 53.708 238.826 53.192 238.826 52.16C238.826 51.128 238.186 50.612 236.906 50.612H234.434V53.708Z" fill="#090F16"/>
<path d="M253.524 54.5V52.688H249.624V51.944L253.692 46.04H254.52V51.848H255.78V52.688H254.52V54.5H253.524ZM253.524 51.848V47.66L250.644 51.848H253.524ZM259.975 54.608C259.431 54.608 258.911 54.52 258.415 54.344C257.919 54.168 257.499 53.92 257.155 53.6L257.527 52.82C258.271 53.428 259.083 53.732 259.963 53.732C260.547 53.732 261.007 53.568 261.343 53.24C261.679 52.912 261.847 52.48 261.847 51.944C261.847 51.392 261.687 50.94 261.367 50.588C261.047 50.236 260.607 50.06 260.047 50.06C259.239 50.06 258.603 50.396 258.139 51.068H257.419V46.04H262.327V46.88H258.391V49.904C258.855 49.44 259.467 49.208 260.227 49.208C260.755 49.208 261.215 49.32 261.607 49.544C261.999 49.768 262.299 50.084 262.507 50.492C262.723 50.892 262.831 51.36 262.831 51.896C262.831 52.424 262.715 52.892 262.483 53.3C262.251 53.708 261.919 54.028 261.487 54.26C261.063 54.492 260.559 54.608 259.975 54.608ZM264.147 49.892V48.668H265.371V49.892H264.147ZM264.147 54.5V53.276H265.371V54.5H264.147ZM267.609 54.5V53.66H269.541V47.228L268.017 48.188L267.597 47.456L269.817 46.04H270.525V53.66H272.337V54.5H267.609ZM274.396 54.5V53.756L277.288 50.636C277.696 50.188 277.988 49.78 278.164 49.412C278.348 49.044 278.44 48.668 278.44 48.284C278.44 47.3 277.868 46.808 276.724 46.808C275.868 46.808 275.112 47.128 274.456 47.768L274.084 47C274.396 46.68 274.792 46.424 275.272 46.232C275.76 46.032 276.272 45.932 276.808 45.932C277.656 45.932 278.304 46.132 278.752 46.532C279.208 46.924 279.436 47.484 279.436 48.212C279.436 48.716 279.312 49.212 279.064 49.7C278.816 50.18 278.436 50.692 277.924 51.236L275.656 53.66H279.784V54.5H274.396ZM281.268 49.892V48.668H282.492V49.892H281.268ZM281.268 54.5V53.276H282.492V54.5H281.268ZM287.022 54.608C286.478 54.608 285.958 54.52 285.462 54.344C284.966 54.168 284.546 53.92 284.202 53.6L284.574 52.82C285.318 53.428 286.13 53.732 287.01 53.732C287.594 53.732 288.054 53.568 288.39 53.24C288.726 52.912 288.894 52.48 288.894 51.944C288.894 51.392 288.734 50.94 288.414 50.588C288.094 50.236 287.654 50.06 287.094 50.06C286.286 50.06 285.65 50.396 285.186 51.068H284.466V46.04H289.374V46.88H285.438V49.904C285.902 49.44 286.514 49.208 287.274 49.208C287.802 49.208 288.262 49.32 288.654 49.544C289.046 49.768 289.346 50.084 289.554 50.492C289.77 50.892 289.878 51.36 289.878 51.896C289.878 52.424 289.762 52.892 289.53 53.3C289.298 53.708 288.966 54.028 288.534 54.26C288.11 54.492 287.606 54.608 287.022 54.608ZM291.518 54.5V53.756L294.41 50.636C294.818 50.188 295.11 49.78 295.286 49.412C295.47 49.044 295.562 48.668 295.562 48.284C295.562 47.3 294.99 46.808 293.846 46.808C292.99 46.808 292.234 47.128 291.578 47.768L291.206 47C291.518 46.68 291.914 46.424 292.394 46.232C292.882 46.032 293.394 45.932 293.93 45.932C294.778 45.932 295.426 46.132 295.874 46.532C296.33 46.924 296.558 47.484 296.558 48.212C296.558 48.716 296.434 49.212 296.186 49.7C295.938 50.18 295.558 50.692 295.046 51.236L292.778 53.66H296.906V54.5H291.518Z" fill="#090F16"/>
<path d="M259 236C259 221.911 255.598 208.03 249.082 195.538L171.5 236H259Z" fill="#52EE7D"/>
<path d="M249.114 195.599C242.684 183.245 233.398 172.605 222.027 164.563C210.657 156.521 197.532 151.309 183.742 149.361L171.5 236L249.114 195.599Z" fill="#9B52F8"/>
<path d="M198.74 319.152C178.972 325.628 157.543 324.849 138.297 316.956C119.051 309.062 103.247 294.571 93.719 276.079C84.1908 257.588 81.5619 236.307 86.3038 216.054C91.0458 195.8 102.848 177.897 119.595 165.558L171.5 236L198.74 319.152Z" fill="#40F0FB"/>
<path d="M259 236C259 254.478 253.15 272.482 242.289 287.431C231.428 302.38 216.113 313.507 198.539 319.217L171.5 236H259Z" fill="#FDA53F"/>
<path d="M119.021 165.984C137.59 152.066 160.928 146.094 183.9 149.383L171.5 236L119.021 165.984Z" fill="#F83F60"/>
</svg>
